<svg width="23" height="24" viewBox="0 0 23 24" fill="none" xmlns="http://www.w3.org/2000/svg">
<path d="M17.9277 6.70711C18.302 6.31658 18.302 5.68342 17.9277 5.29289C17.5535 4.90237 16.9467 4.90237 16.5724 5.29289L11.5001 10.5858L6.42773 5.29289C6.05347 4.90237 5.44669 4.90237 5.07244 5.29289C4.69818 5.68342 4.69818 6.31658 5.07244 6.70711L10.1448 12L5.07244 17.2929C4.69818 17.6834 4.69818 18.3166 5.07244 18.7071C5.44669 19.0976 6.05347 19.0976 6.42773 18.7071L11.5001 13.4142L16.5724 18.7071C16.9467 19.0976 17.5535 19.0976 17.9277 18.7071C18.302 18.3166 18.302 17.6834 17.9277 17.2929L12.8554 12L17.9277 6.70711Z" fill="#3A3A3A"/>
</svg>
