<svg width="32" height="32" viewBox="0 0 32 32" fill="none" xmlns="http://www.w3.org/2000/svg">
<path d="M21.4188 13.9963H22.3481C23.0052 13.9981 23.656 13.8695 24.263 13.618C24.87 13.3666 25.4211 12.9972 25.8844 12.5312L31 7.375L29.6113 5.975L24.3875 11.1987L23.3019 10.1131L28.5256 4.88875L27.0881 3.49437L21.8838 8.69812L20.8013 7.6125L26.025 2.38812L24.625 1L19.4688 6.11562C19.0028 6.57898 18.6334 7.13017 18.3819 7.73729C18.1304 8.3444 18.0019 8.99537 18.0038 9.6525V10.5813L15.3081 13.2769L3.00002 1C0.232519 4.42937 1.86689 10.7319 4.98252 13.8481L10.3263 19.1919C11.9856 20.8512 12.315 20.9994 14.1975 20.2419C14.6031 20.0788 14.7506 20.0969 15.1288 20.4744L15.9413 21.2325C16.1244 21.42 16.1288 21.475 16.1288 21.8337V22.18C16.1288 23.4975 16.9713 24.255 17.5263 24.82L24 31L28.5 26.5L18.7231 16.6919L21.4188 13.9963Z" fill="#FAA881"/>
<path d="M14.2106 22.1619C12.3469 22.5438 11.2037 22.8956 9.01812 20.71C8.98312 20.675 8.94687 20.6413 8.91187 20.6063L7.69312 19.3875L1 26L6 31L15 22L14.2106 22.1619Z" fill="#FAA881"/>
</svg>
