<svg width="10" height="10" viewBox="0 0 10 10" fill="none" xmlns="http://www.w3.org/2000/svg">
<g clip-path="url(#clip0_1_294)">
<path d="M5.56038 0.556734C5.45508 0.343419 5.23782 0.208374 4.99994 0.208374C4.76205 0.208374 4.54479 0.343419 4.43949 0.556734L3.29727 2.87075L0.742878 3.24411C0.507527 3.27851 0.312102 3.44352 0.238741 3.66977C0.16538 3.89603 0.226801 4.14431 0.397187 4.31027L2.24503 6.11006L1.80893 8.65272C1.76871 8.88721 1.86512 9.1242 2.0576 9.26403C2.25009 9.40386 2.50527 9.42228 2.71584 9.31155L4.99994 8.11036L7.28403 9.31155C7.4946 9.42228 7.74978 9.40386 7.94227 9.26403C8.13476 9.1242 8.23116 8.88721 8.19094 8.65272L7.75485 6.11006L9.60269 4.31027C9.77307 4.14431 9.83449 3.89603 9.76113 3.66977C9.68777 3.44352 9.49235 3.27851 9.257 3.24411L6.7026 2.87075L5.56038 0.556734Z" fill="#FFE202"/>
</g>
<defs>
<clipPath id="clip0_1_294">
<rect width="10" height="10" fill="white"/>
</clipPath>
</defs>
</svg>
