<svg width="22" height="22" viewBox="0 0 22 22" fill="none" xmlns="http://www.w3.org/2000/svg">
<g clip-path="url(#clip0_0_81)">
<path d="M18.842 19.25H17.2728V19.6582C17.2728 20.4173 17.0317 21.0225 16.5495 21.4736C16.0673 21.9248 15.4829 22.0859 14.7964 21.957L2.48809 19.8301C1.80157 19.7155 1.21721 19.3503 0.735016 18.7344C0.252818 18.1185 0.0117188 17.431 0.0117188 16.6719V2.75C0.0117188 1.99089 0.318201 1.34277 0.931164 0.805664C1.54413 0.268555 2.28377 0 3.15009 0H18.842C19.7083 0 20.4479 0.268555 21.0609 0.805664C21.6739 1.34277 21.9803 1.99089 21.9803 2.75V16.5C21.9803 17.2591 21.6739 17.9072 21.0609 18.4443C20.4479 18.9814 19.7083 19.25 18.842 19.25ZM3.15009 8.95898C3.15009 9.61784 3.39528 10.2194 3.88565 10.7637C3.95103 10.8496 4.12675 10.9857 4.4128 11.1719C4.69885 11.3581 4.95221 11.555 5.17287 11.7627C5.39354 11.9704 5.50387 12.1745 5.50387 12.375V15.125C5.50387 15.3398 5.76132 15.5368 6.27621 15.7158C6.7911 15.8949 7.57978 16.099 8.64225 16.3281C9.27973 16.4714 9.8314 16.5251 10.2972 16.4893C10.7631 16.4535 11.1268 16.3711 11.3883 16.2422C11.6499 16.1133 11.7806 15.9701 11.7806 15.8125V13.0625C11.7806 12.862 11.891 12.6722 12.1116 12.4932C12.3323 12.3141 12.5938 12.153 12.8962 12.0098C13.1986 11.8665 13.3743 11.7734 13.4234 11.7305C13.5051 11.6732 13.6236 11.6087 13.7789 11.5371C13.9342 11.4655 14.0322 11.3903 14.0731 11.3115C14.114 11.2327 14.1344 11.0931 14.1344 10.8926C14.1344 10.248 13.8974 9.65365 13.4234 9.10938C12.9493 8.5651 12.3854 8.23568 11.7316 8.12109C11.3229 8.04948 10.9388 8.08529 10.5792 8.22852C10.0888 7.49805 9.4391 7.0612 8.62999 6.91797C7.82088 6.77474 7.17931 6.98242 6.70528 7.54102C6.32933 7.2832 5.94521 7.11849 5.55291 7.04688C4.88274 6.93229 4.31472 7.0612 3.84887 7.43359C3.38302 7.80599 3.15009 8.31445 3.15009 8.95898ZM20.4111 3.73828C20.4111 3.07943 20.1455 2.52083 19.6143 2.0625C19.0831 1.60417 18.4497 1.375 17.7141 1.375H6.31298L14.7964 2.83594C15.4829 2.96484 16.0673 3.33724 16.5495 3.95312C17.0317 4.56901 17.2728 5.24935 17.2728 5.99414V17.875H17.7141C18.4497 17.875 19.0831 17.6423 19.6143 17.1768C20.1455 16.7113 20.4111 16.1562 20.4111 15.5117V3.73828Z" fill="black" fill-opacity="0.5"/>
</g>
<defs>
<clipPath id="clip0_0_81">
<rect width="22" height="22" fill="white"/>
</clipPath>
</defs>
</svg>
