<svg width="24" height="24" viewBox="0 0 24 24" fill="none" xmlns="http://www.w3.org/2000/svg">
<path d="M11.2928 6.25711L11.9999 6.96421L12.707 6.25711L13.607 5.35711C14.4716 4.4925 15.6431 4 16.8749 4C18.1026 4 19.2613 4.48852 20.1188 5.40732L20.1306 5.41992L20.1428 5.43211C22.0023 7.29158 22.0023 10.2584 20.1428 12.1179L20.1398 12.1209L11.9999 20.3298L3.85999 12.1209L3.85999 12.1209L3.85701 12.1179C1.99753 10.2584 1.99753 7.29158 3.85701 5.43211L3.93201 5.35711C5.71446 3.57465 8.67199 3.57458 10.4559 5.42002L10.4618 5.42612L10.4678 5.43211L11.2928 6.25711Z" stroke="black" stroke-opacity="0.5" stroke-width="2"/>
</svg>
