<svg width="16" height="16" viewBox="0 0 16 16" fill="none" xmlns="http://www.w3.org/2000/svg">
<path fill-rule="evenodd" clip-rule="evenodd" d="M4.6999 1.33331C3.55034 1.33331 2.44786 1.78997 1.635 2.60284C0.82214 3.4157 0.365479 4.51818 0.365479 5.66774C0.365479 6.8173 0.82214 7.91977 1.635 8.73264L7.52865 14.6263C7.56119 14.6588 7.59626 14.6873 7.63323 14.7117C7.89201 14.8826 8.24369 14.8541 8.47151 14.6263L14.3652 8.73264C15.178 7.91977 15.6347 6.8173 15.6347 5.66774C15.6347 4.51818 15.178 3.4157 14.3652 2.60284C13.5523 1.78997 12.4498 1.33331 11.3003 1.33331C10.1507 1.33331 9.04822 1.78997 8.23536 2.60284L8.00008 2.83811L7.7648 2.60284C6.95194 1.78997 5.84946 1.33331 4.6999 1.33331ZM8.47151 4.2524C8.24369 4.48022 7.89201 4.50869 7.63323 4.33783C7.59626 4.31342 7.56119 4.28494 7.52865 4.2524L6.82194 3.5457C6.25914 2.98289 5.49582 2.66672 4.6999 2.66672C3.90398 2.66672 3.14066 2.98289 2.57786 3.5457C2.01506 4.1085 1.69888 4.87182 1.69888 5.66774C1.69888 6.46366 2.01506 7.22698 2.57786 7.78978L8.00008 13.212L13.4223 7.78978C13.9851 7.22698 14.3013 6.46366 14.3013 5.66774C14.3013 4.87182 13.9851 4.1085 13.4223 3.5457C12.8595 2.98289 12.0962 2.66672 11.3003 2.66672C10.5043 2.66672 9.74102 2.98289 9.17822 3.5457L8.47151 4.2524Z" fill="#3A3A3A"/>
</svg>
