<svg width="16" height="16" viewBox="0 0 16 16" fill="none" xmlns="http://www.w3.org/2000/svg">
<path d="M14.6399 6.48669L13.6866 3.15335C13.6478 3.01341 13.5642 2.89004 13.4486 2.80214C13.333 2.71424 13.1918 2.66666 13.0466 2.66669H2.95323C2.65323 2.66669 2.39323 2.86669 2.31323 3.15335L1.3599 6.48669C1.2399 6.90669 1.5599 7.33335 1.9999 7.33335H3.46656L2.66656 13.3334H3.9999L4.44656 10H11.5599L11.9999 13.3334H13.3332L12.5332 7.33335H13.9999C14.4399 7.33335 14.7599 6.90669 14.6399 6.48669ZM4.6199 8.66669L4.7999 7.33335H11.1999L11.3799 8.66669H4.6199ZM2.88656 6.00002L3.4599 4.00002H12.5466L13.1199 6.00002H2.88656Z" fill="white"/>
</svg>
